<svg width="56" height="56" viewBox="0 0 56 56" fill="none" xmlns="http://www.w3.org/2000/svg">
<path d="M0 14C0 6.26801 6.26801 0 14 0H42C49.732 0 56 6.26801 56 14V42C56 49.732 49.732 56 42 56H14C6.26801 56 0 49.732 0 42V14Z" fill="#990000"/>
<path d="M37.3333 38.5V36.1667C37.3333 34.929 36.8417 33.742 35.9665 32.8668C35.0913 31.9917 33.9043 31.5 32.6667 31.5H23.3333C22.0957 31.5 20.9087 31.9917 20.0335 32.8668C19.1583 33.742 18.6667 34.929 18.6667 36.1667V38.5" stroke="white" stroke-width="2.91667" stroke-linecap="round" stroke-linejoin="round"/>
<path d="M28 26.8333C30.5773 26.8333 32.6667 24.744 32.6667 22.1667C32.6667 19.5893 30.5773 17.5 28 17.5C25.4227 17.5 23.3333 19.5893 23.3333 22.1667C23.3333 24.744 25.4227 26.8333 28 26.8333Z" stroke="white" stroke-width="2.91667" stroke-linecap="round" stroke-linejoin="round"/>
</svg>
