<svg width="36" height="36" viewBox="0 0 36 36" fill="none" xmlns="http://www.w3.org/2000/svg">
<path d="M22.5 4.5C22.8978 4.5 23.2794 4.65804 23.5607 4.93934C23.842 5.22064 24 5.60218 24 6V9H31.5C31.8978 9 32.2794 9.15804 32.5607 9.43934C32.842 9.72064 33 10.1022 33 10.5V30C33 30.3978 32.842 30.7794 32.5607 31.0607C32.2794 31.342 31.8978 31.5 31.5 31.5H4.5C4.10218 31.5 3.72064 31.342 3.43934 31.0607C3.15804 30.7794 3 30.3978 3 30V10.5C3 10.1022 3.15804 9.72064 3.43934 9.43934C3.72064 9.15804 4.10218 9 4.5 9H12V6C12 5.60218 12.158 5.22064 12.4393 4.93934C12.7206 4.65804 13.1022 4.5 13.5 4.5H22.5ZM12 12H9V28.5H12V12ZM27 12H24V28.5H27V12ZM21 7.5H15V9H21V7.5Z" fill="#840A0A"/>
</svg>
