<svg width="36" height="36" viewBox="0 0 36 36" fill="none" xmlns="http://www.w3.org/2000/svg">
<path d="M7.5 16.5L9.75 9.75H26.25L28.5 16.5M26.25 24C25.6533 24 25.081 23.7629 24.659 23.341C24.2371 22.919 24 22.3467 24 21.75C24 21.1533 24.2371 20.581 24.659 20.159C25.081 19.7371 25.6533 19.5 26.25 19.5C26.8467 19.5 27.419 19.7371 27.841 20.159C28.2629 20.581 28.5 21.1533 28.5 21.75C28.5 22.3467 28.2629 22.919 27.841 23.341C27.419 23.7629 26.8467 24 26.25 24ZM9.75 24C9.15326 24 8.58097 23.7629 8.15901 23.341C7.73705 22.919 7.5 22.3467 7.5 21.75C7.5 21.1533 7.73705 20.581 8.15901 20.159C8.58097 19.7371 9.15326 19.5 9.75 19.5C10.3467 19.5 10.919 19.7371 11.341 20.159C11.7629 20.581 12 21.1533 12 21.75C12 22.3467 11.7629 22.919 11.341 23.341C10.919 23.7629 10.3467 24 9.75 24ZM28.38 9C28.08 8.13 27.24 7.5 26.25 7.5H9.75C8.76 7.5 7.92 8.13 7.62 9L4.5 18V30C4.5 30.3978 4.65804 30.7794 4.93934 31.0607C5.22064 31.342 5.60218 31.5 6 31.5H7.5C7.89782 31.5 8.27936 31.342 8.56066 31.0607C8.84196 30.7794 9 30.3978 9 30V28.5H27V30C27 30.3978 27.158 30.7794 27.4393 31.0607C27.7206 31.342 28.1022 31.5 28.5 31.5H30C30.3978 31.5 30.7794 31.342 31.0607 31.0607C31.342 30.7794 31.5 30.3978 31.5 30V18L28.38 9Z" fill="#840A0A"/>
</svg>
