<svg width="35" height="35" viewBox="0 0 35 35" fill="none" xmlns="http://www.w3.org/2000/svg">
<rect width="35" height="35" rx="8" fill="#FFC456"/>
<path d="M16.4325 7.97519C16.6851 7.94724 16.9385 8.02078 17.137 8.17966C17.3354 8.33853 17.4625 8.56972 17.4905 8.82236C17.5185 9.075 17.4449 9.3284 17.286 9.52681C17.1272 9.72523 16.896 9.8524 16.6433 9.88036C14.6995 10.103 12.9143 11.0604 11.6533 12.5563C10.3923 14.0523 9.75085 15.9738 9.86035 17.9273C9.96984 19.8808 10.822 21.7185 12.2423 23.0642C13.6625 24.4099 15.5435 25.1617 17.5001 25.1658V27.0824C12.2072 27.0824 7.91675 22.7929 7.91675 17.4991C7.91675 12.6059 11.6044 8.51186 16.4325 7.97615V7.97519Z" fill="url(#paint0_linear_81_138)"/>
<path d="M21.6419 9.87167C21.7873 9.6633 22.0096 9.52121 22.2597 9.47664C22.5099 9.43207 22.7675 9.48867 22.9759 9.634C24.2445 10.5163 25.2808 11.6926 25.996 13.0624C26.7113 14.4322 27.0843 15.9547 27.0833 17.5C27.0833 22.7929 22.7929 27.0833 17.5 27.0833V25.1667C19.1325 25.1669 20.7225 24.646 22.0385 23.6798C23.3544 22.7136 24.3275 21.3526 24.8162 19.7949C25.3049 18.2372 25.2836 16.5642 24.7554 15.0195C24.2272 13.4748 23.2197 12.139 21.8796 11.2066C21.7763 11.1346 21.6882 11.043 21.6203 10.9369C21.5524 10.8308 21.5062 10.7124 21.4841 10.5884C21.462 10.4644 21.4646 10.3373 21.4917 10.2143C21.5188 10.0913 21.5698 9.97491 21.6419 9.87167Z" fill="url(#paint1_linear_81_138)"/>
<defs>
<linearGradient id="paint0_linear_81_138" x1="12.7084" y1="8.97683" x2="12.7084" y2="25.5138" gradientUnits="userSpaceOnUse">
<stop stop-color="white"/>
<stop offset="1" stop-color="white" stop-opacity="0.55"/>
</linearGradient>
<linearGradient id="paint1_linear_81_138" x1="22.2917" y1="11.026" x2="22.2917" y2="25.3943" gradientUnits="userSpaceOnUse">
<stop stop-color="white" stop-opacity="0"/>
<stop offset="1" stop-color="white" stop-opacity="0.55"/>
</linearGradient>
</defs>
</svg>
