<svg width="35" height="35" viewBox="0 0 35 35" fill="none" xmlns="http://www.w3.org/2000/svg">
<rect width="35" height="35" rx="8" fill="#19BC5D"/>
<path fill-rule="evenodd" clip-rule="evenodd" d="M17.5 26.125C18.6327 26.125 19.7542 25.9019 20.8006 25.4685C21.8471 25.035 22.7979 24.3997 23.5988 23.5988C24.3997 22.7979 25.035 21.8471 25.4685 20.8006C25.9019 19.7542 26.125 18.6327 26.125 17.5C26.125 16.3673 25.9019 15.2458 25.4685 14.1994C25.035 13.1529 24.3997 12.2021 23.5988 11.4012C22.7979 10.6003 21.8471 9.96499 20.8006 9.53154C19.7542 9.09809 18.6327 8.875 17.5 8.875C15.2125 8.875 13.0187 9.7837 11.4012 11.4012C9.7837 13.0187 8.875 15.2125 8.875 17.5C8.875 19.7875 9.7837 21.9813 11.4012 23.5988C13.0187 25.2163 15.2125 26.125 17.5 26.125ZM17.2777 20.9883L22.0693 15.2383L20.5973 14.0117L16.4765 18.9557L14.3442 16.8225L12.9891 18.1775L15.8641 21.0525L16.6059 21.7943L17.2777 20.9883Z" fill="white"/>
</svg>
