<svg width="36" height="36" viewBox="0 0 36 36" fill="none" xmlns="http://www.w3.org/2000/svg">
<path d="M26.595 18.693C26.809 18.693 26.988 18.621 27.132 18.477C27.276 18.333 27.3475 18.155 27.3465 17.943C27.3455 17.731 27.2735 17.5525 27.1305 17.4075C26.9875 17.2625 26.8095 17.191 26.5965 17.193H21.981C21.768 17.193 21.5895 17.2645 21.4455 17.4075C21.3025 17.5505 21.231 17.729 21.231 17.943C21.231 18.157 21.3025 18.335 21.4455 18.477C21.5885 18.619 21.767 18.691 21.981 18.693H26.595ZM26.595 14.538C26.809 14.538 26.988 14.4665 27.132 14.3235C27.276 14.1805 27.3475 14.002 27.3465 13.788C27.3455 13.574 27.2735 13.396 27.1305 13.254C26.9875 13.112 26.8095 13.04 26.5965 13.038H21.981C21.768 13.038 21.5895 13.1095 21.4455 13.2525C21.3025 13.3965 21.231 13.575 21.231 13.788C21.231 14.001 21.3025 14.1795 21.4455 14.3235C21.5885 14.4675 21.767 14.539 21.981 14.538H26.595ZM13.6155 19.962C12.7925 19.962 12.0955 20.019 11.5245 20.133C10.9525 20.247 10.44 20.431 9.987 20.685C9.597 20.895 9.3025 21.1245 9.1035 21.3735C8.9045 21.6225 8.8055 21.8885 8.8065 22.1715C8.8065 22.3945 8.895 22.582 9.072 22.734C9.249 22.886 9.471 22.962 9.738 22.962H17.493C17.76 22.962 17.982 22.8795 18.159 22.7145C18.336 22.5495 18.4245 22.353 18.4245 22.125C18.4245 21.873 18.33 21.6285 18.141 21.3915C17.952 21.1545 17.653 20.9195 17.244 20.6865C16.79 20.4315 16.2775 20.247 15.7065 20.133C15.1355 20.019 14.4385 19.962 13.6155 19.962ZM15.2145 16.887C15.6485 16.454 15.8655 15.921 15.8655 15.288C15.8655 14.655 15.6485 14.122 15.2145 13.689C14.7805 13.256 14.2475 13.039 13.6155 13.038C12.9835 13.037 12.4505 13.254 12.0165 13.689C11.5825 14.124 11.3655 14.657 11.3655 15.288C11.3655 15.919 11.5825 16.4525 12.0165 16.8885C12.4505 17.3245 12.9835 17.541 13.6155 17.538C14.2475 17.535 14.7805 17.317 15.2145 16.887ZM6.9225 28.5C6.2325 28.5 5.656 28.269 5.193 27.807C4.73 27.345 4.499 26.768 4.5 26.076V9.924C4.5 9.233 4.7315 8.6565 5.1945 8.1945C5.6575 7.7325 6.2335 7.501 6.9225 7.5H29.0775C29.7675 7.5 30.3435 7.7315 30.8055 8.1945C31.2675 8.6575 31.499 9.234 31.5 9.924V26.0775C31.5 26.7675 31.2685 27.344 30.8055 27.807C30.3425 28.27 29.7665 28.501 29.0775 28.5H6.9225Z" fill="#E9A320"/>
</svg>
