<svg width="20" height="20" viewBox="0 0 20 20" fill="none" xmlns="http://www.w3.org/2000/svg">
<path d="M13.3333 9.16667C13.3333 10.2717 12.8943 11.3315 12.1129 12.1129C11.3315 12.8943 10.2717 13.3333 9.16667 13.3333C8.0616 13.3333 7.00179 12.8943 6.22039 12.1129C5.43899 11.3315 5 10.2717 5 9.16667C5 8.0616 5.43899 7.00179 6.22039 6.22039C7.00179 5.43899 8.0616 5 9.16667 5C10.2717 5 11.3315 5.43899 12.1129 6.22039C12.8943 7.00179 13.3333 8.0616 13.3333 9.16667Z" fill="#555555"/>
<path fill-rule="evenodd" clip-rule="evenodd" d="M1.66675 9.16667C1.66688 7.96865 1.954 6.78809 2.50408 5.72382C3.05415 4.65955 3.85118 3.74254 4.82843 3.04956C5.80569 2.35657 6.93473 1.90778 8.12105 1.74074C9.30737 1.5737 10.5164 1.69329 11.6471 2.08948C12.7777 2.48567 13.7969 3.14695 14.6195 4.01795C15.442 4.88894 16.044 5.94432 16.3749 7.09573C16.7059 8.24713 16.7562 9.46106 16.5216 10.6359C16.287 11.8107 15.7744 12.9123 15.0267 13.8483L18.0892 16.9108C18.241 17.068 18.325 17.2785 18.3231 17.497C18.3212 17.7155 18.2336 17.9245 18.0791 18.079C17.9246 18.2335 17.7156 18.3212 17.4971 18.3231C17.2786 18.325 17.0681 18.241 16.9109 18.0892L13.8484 15.0267C12.745 15.9083 11.415 16.4605 10.0116 16.6196C8.60813 16.7787 7.1883 16.5383 5.91549 15.926C4.64269 15.3137 3.56865 14.3544 2.81699 13.1586C2.06534 11.9628 1.66663 10.5791 1.66675 9.16667ZM9.16675 3.33334C8.4007 3.33334 7.64216 3.48422 6.93443 3.77737C6.2267 4.07052 5.58363 4.5002 5.04196 5.04188C4.50028 5.58355 4.0706 6.22662 3.77745 6.93435C3.4843 7.64208 3.33341 8.40063 3.33341 9.16667C3.33341 9.93271 3.4843 10.6913 3.77745 11.399C4.0706 12.1067 4.50028 12.7498 5.04196 13.2915C5.58363 13.8331 6.2267 14.2628 6.93443 14.556C7.64216 14.8491 8.4007 15 9.16675 15C10.7138 15 12.1976 14.3854 13.2915 13.2915C14.3855 12.1975 15.0001 10.7138 15.0001 9.16667C15.0001 7.61957 14.3855 6.13584 13.2915 5.04188C12.1976 3.94792 10.7138 3.33334 9.16675 3.33334Z" fill="#555555"/>
</svg>
