<svg width="22" height="22" viewBox="0 0 22 22" fill="none" xmlns="http://www.w3.org/2000/svg">
<path d="M12.6463 3.79133C12.4327 3.57066 12.1768 3.39521 11.894 3.27538C11.6112 3.15556 11.3072 3.09381 11 3.09381C10.6929 3.09381 10.3888 3.15556 10.106 3.27538C9.82319 3.39521 9.56735 3.57066 9.35368 3.79133L4.9546 8.33433C4.70251 8.59466 4.53293 8.92466 4.46693 9.28216C3.93354 12.1955 3.89418 15.1778 4.35051 18.1042L4.51185 19.14C4.56318 19.4672 4.84551 19.7083 5.17643 19.7083H8.25001C8.37157 19.7083 8.48815 19.66 8.5741 19.5741C8.66006 19.4881 8.70834 19.3715 8.70834 19.25V12.8333H13.2917V19.25C13.2917 19.3715 13.34 19.4881 13.4259 19.5741C13.5119 19.66 13.6285 19.7083 13.75 19.7083H16.8236C16.984 19.7088 17.1392 19.6517 17.261 19.5474C17.3828 19.4431 17.4631 19.2985 17.4873 19.14L17.6495 18.1042C18.1058 15.1778 18.0665 12.1955 17.5331 9.28216C17.4677 8.92478 17.2977 8.59488 17.0445 8.33433L12.6463 3.79133Z" fill="#444444"/>
</svg>
