<svg width="20" height="20" viewBox="0 0 20 20" fill="none" xmlns="http://www.w3.org/2000/svg">
<path d="M9.99996 1.66669V5.00002C9.99996 5.69447 10.243 6.28474 10.7291 6.77085C11.2152 7.25697 11.8055 7.50002 12.5 7.50002H15.8333V16.6667C15.8333 17.125 15.6702 17.5175 15.3441 17.8442C15.018 18.1709 14.6255 18.3339 14.1666 18.3334H5.83329C5.37496 18.3334 4.98274 18.1703 4.65663 17.8442C4.33051 17.5181 4.16718 17.1256 4.16663 16.6667V3.33335C4.16663 2.87502 4.32996 2.4828 4.65663 2.15669C4.98329 1.83058 5.37551 1.66724 5.83329 1.66669H9.99996ZM11.6666 1.66669L15.8333 5.83335H12.5C12.2638 5.83335 12.0661 5.75335 11.9066 5.59335C11.7472 5.43335 11.6672 5.23558 11.6666 5.00002V1.66669ZM8.33329 15.8334H9.99996C10.2361 15.8334 10.4341 15.7534 10.5941 15.5934C10.7541 15.4334 10.8338 15.2356 10.8333 15C10.8327 14.7645 10.7527 14.5667 10.5933 14.4067C10.4338 14.2467 10.2361 14.1667 9.99996 14.1667H8.33329C8.09718 14.1667 7.8994 14.2467 7.73996 14.4067C7.58051 14.5667 7.50051 14.7645 7.49996 15C7.4994 15.2356 7.5794 15.4336 7.73996 15.5942C7.90051 15.7547 8.09829 15.8345 8.33329 15.8334ZM8.33329 12.5H11.6666C11.9027 12.5 12.1008 12.42 12.2608 12.26C12.4208 12.1 12.5005 11.9022 12.5 11.6667C12.4994 11.4311 12.4194 11.2334 12.26 11.0734C12.1005 10.9134 11.9027 10.8334 11.6666 10.8334H8.33329C8.09718 10.8334 7.8994 10.9134 7.73996 11.0734C7.58051 11.2334 7.50051 11.4311 7.49996 11.6667C7.4994 11.9022 7.5794 12.1003 7.73996 12.2609C7.90051 12.4214 8.09829 12.5011 8.33329 12.5Z" fill="#555555"/>
</svg>
