<svg width="21" height="26" viewBox="0 0 21 26" fill="none" xmlns="http://www.w3.org/2000/svg">
<path d="M5.35206 24.242C5.78721 24.7922 6.34171 25.2364 6.97367 25.541C7.60564 25.8455 8.29855 26.0025 9.00006 26C9.70158 26.0025 10.3945 25.8455 11.0264 25.541C11.6584 25.2364 12.2129 24.7922 12.6481 24.242C10.2271 24.5697 7.77303 24.5697 5.35206 24.242ZM15.7501 13V13.704C15.7501 14.549 15.9901 15.375 16.4421 16.078L17.5501 17.801C18.5611 19.375 17.7891 21.514 16.0301 22.011C11.4338 23.3127 6.56635 23.3127 1.97006 22.011C0.211062 21.514 -0.560938 19.375 0.450062 17.801L1.55806 16.078C2.01128 15.3692 2.25178 14.5453 2.25106 13.704V13C2.25106 9.134 5.27306 6 9.00006 6C12.7271 6 15.7501 9.134 15.7501 13Z" fill="#444444"/>
<circle cx="17.5" cy="3.5" r="3.5" fill="#FF9999"/>
</svg>
