<svg width="45" height="45" viewBox="0 0 45 45" fill="none" xmlns="http://www.w3.org/2000/svg">
<rect width="45" height="45" rx="22.5" fill="#990000"/>
<path d="M31.8334 33V30.6667C31.8334 29.429 31.3417 28.242 30.4666 27.3668C29.5914 26.4917 28.4044 26 27.1667 26H17.8334C16.5957 26 15.4088 26.4917 14.5336 27.3668C13.6584 28.242 13.1667 29.429 13.1667 30.6667V33" stroke="white" stroke-width="2.91667" stroke-linecap="round" stroke-linejoin="round"/>
<path d="M22.4999 21.3333C25.0772 21.3333 27.1666 19.244 27.1666 16.6667C27.1666 14.0893 25.0772 12 22.4999 12C19.9226 12 17.8333 14.0893 17.8333 16.6667C17.8333 19.244 19.9226 21.3333 22.4999 21.3333Z" stroke="white" stroke-width="2.91667" stroke-linecap="round" stroke-linejoin="round"/>
</svg>
