<svg width="35" height="35" viewBox="0 0 35 35" fill="none" xmlns="http://www.w3.org/2000/svg">
<rect width="35" height="35" rx="8" fill="#276FC2"/>
<path d="M19.4042 17.1406C19.4396 17.1407 19.4743 17.1302 19.5038 17.1107C19.5332 17.0911 19.5563 17.0632 19.57 17.0306C19.5838 16.998 19.5875 16.962 19.5809 16.9272C19.5743 16.8925 19.5575 16.8604 19.5327 16.8352L16.0108 13.254C15.9858 13.2286 15.9538 13.2112 15.9188 13.204C15.8839 13.1969 15.8476 13.2003 15.8146 13.2138C15.7816 13.2274 15.7534 13.2504 15.7335 13.28C15.7137 13.3097 15.7031 13.3445 15.7031 13.3802V16.6016C15.7031 16.7445 15.7599 16.8816 15.861 16.9827C15.9621 17.0838 16.0992 17.1406 16.2422 17.1406H19.4042Z" fill="white"/>
<path d="M14.8496 17.9941C14.6651 17.8121 14.5185 17.5953 14.4183 17.3563C14.318 17.1173 14.2661 16.8608 14.2656 16.6016V12.4688H11.0312C10.2694 12.471 9.53949 12.7746 9.00081 13.3133C8.46213 13.852 8.1585 14.5819 8.15625 15.3438V25.4062C8.15625 26.1687 8.45915 26.9 8.99832 27.4392C9.53748 27.9783 10.2688 28.2812 11.0312 28.2812H17.5C18.2625 28.2812 18.9938 27.9783 19.5329 27.4392C20.0721 26.9 20.375 26.1687 20.375 25.4062V18.5781H16.2422C15.983 18.5778 15.7264 18.526 15.4874 18.4257C15.2483 18.3255 15.0315 18.1788 14.8496 17.9941ZM22.7109 11.3906H25.873C25.9084 11.3907 25.943 11.3802 25.9725 11.3607C26.002 11.3411 26.0251 11.3132 26.0388 11.2806C26.0525 11.248 26.0563 11.212 26.0496 11.1772C26.043 11.1425 26.0262 11.1104 26.0015 11.0852L22.4796 7.50398C22.4546 7.47857 22.4225 7.46118 22.3876 7.45403C22.3526 7.44688 22.3164 7.45029 22.2834 7.46382C22.2504 7.47736 22.2221 7.50041 22.2023 7.53004C22.1824 7.55968 22.1718 7.59455 22.1719 7.63021V10.8516C22.1719 10.9945 22.2287 11.1316 22.3298 11.2327C22.4309 11.3338 22.568 11.3906 22.7109 11.3906Z" fill="white"/>
<path d="M22.7109 12.8281C22.188 12.8241 21.6875 12.6146 21.3177 12.2448C20.9479 11.875 20.7384 11.3745 20.7344 10.8516V6.71875H15.8828C15.1682 6.71958 14.4831 7.00382 13.9779 7.50911C13.4726 8.0144 13.1883 8.69948 13.1875 9.41406V11.0312H15.0796C15.3211 11.0322 15.5601 11.0809 15.7827 11.1744C16.0054 11.268 16.2073 11.4047 16.377 11.5766L21.2806 16.5629C21.6228 16.91 21.8138 17.3783 21.812 17.8657V23.9688H24.1952C25.6556 23.9688 26.8433 22.7595 26.8433 21.2734V12.8281H22.7109Z" fill="white"/>
</svg>
